<?xml version="1.0" encoding="iso-8859-1"?>
<!-- Generator: Adobe Illustrator 19.0.0, SVG Export Plug-In . SVG Version: 6.00 Build 0)  -->
<svg version="1.1" id="Capa_1" xmlns="http://www.w3.org/2000/svg" xmlns:xlink="http://www.w3.org/1999/xlink" x="0px" y="0px"
	 viewBox="0 0 512 512" style="enable-background:new 0 0 512 512;" xml:space="preserve">
<g>
	<g>
		<path d="M256,0C114.844,0,0,114.844,0,256s114.844,256,256,256s256-114.844,256-256S397.156,0,256,0z M453.914,381.557
			c-3.829,6.014-7.93,11.82-12.276,17.447l-87.333-61.155c-12.096,14.504-27.382,26.201-44.707,34.233l36.579,100.51
			c-6.535,2.73-13.204,5.202-20.022,7.342l-36.594-100.549C278.845,382.305,267.629,384,256,384s-22.845-1.695-33.561-4.615
			l-36.594,100.549c-6.818-2.141-13.487-4.612-20.022-7.342l36.579-100.51c-17.326-8.033-32.611-19.729-44.707-34.233
			l-87.333,61.155c-4.346-5.626-8.447-11.432-12.276-17.447l87.434-61.224c-9.367-16.023-15.363-34.212-16.979-53.667H21.874
			c-0.161-3.561-0.54-7.066-0.54-10.667s0.379-7.105,0.54-10.667H128.54c1.616-19.454,7.612-37.643,16.979-53.667l-87.434-61.224
			c3.829-6.014,7.93-11.82,12.276-17.447l87.333,61.155c12.096-14.504,27.382-26.201,44.707-34.233l-36.579-100.51
			c6.535-2.73,13.204-5.202,20.022-7.342l36.594,100.549C233.155,129.695,244.371,128,256,128s22.845,1.695,33.561,4.615
			l36.594-100.549c6.818,2.141,13.487,4.612,20.022,7.342l-36.579,100.51c17.326,8.033,32.611,19.729,44.707,34.233l87.333-61.155
			c4.346,5.626,8.447,11.432,12.276,17.447l-87.434,61.224c9.367,16.023,15.363,34.212,16.979,53.667h106.667
			c0.161,3.561,0.54,7.066,0.54,10.667s-0.379,7.105-0.54,10.667H383.46c-1.616,19.454-7.612,37.643-16.979,53.667L453.914,381.557z
			"/>
	</g>
</g>
<g>
</g>
<g>
</g>
<g>
</g>
<g>
</g>
<g>
</g>
<g>
</g>
<g>
</g>
<g>
</g>
<g>
</g>
<g>
</g>
<g>
</g>
<g>
</g>
<g>
</g>
<g>
</g>
<g>
</g>
</svg>
